# Tiled2Unity generated file. Do not modify by hand.
# Wavefront file for 'house_mesh_0007.obj'

# Vertices (Count = 44)
v -32 -32 0
v -64 -32 0
v -64 0 0
v -32 0 0
v -192 -32 0
v -224 -32 0
v -224 0 0
v -192 0 0
v -288 -32 0
v -320 -32 0
v -320 0 0
v -288 0 0
v -320 -32 0
v -352 -32 0
v -352 0 0
v -320 0 0
v -32 -64 0
v -64 -64 0
v -64 -32 0
v -32 -32 0
v -192 -64 0
v -224 -64 0
v -224 -32 0
v -192 -32 0
v -288 -64 0
v -320 -64 0
v -320 -32 0
v -288 -32 0
v -320 -64 0
v -352 -64 0
v -352 -32 0
v -320 -32 0
v -192 -96 0
v -224 -96 0
v -224 -64 0
v -192 -64 0
v -288 -96 0
v -320 -96 0
v -320 -64 0
v -288 -64 0
v -320 -96 0
v -352 -96 0
v -352 -64 0
v -320 -64 0

# Texture cooridinates (Count = 22)
vt 0.5 0.8461539
vt 0.6666667 0.8461539
vt 0.6666667 0.9230769
vt 0.5 0.9230769
vt 0.6666667 0.6923077
vt 0.8333333 0.6923077
vt 0.8333333 0.7692308
vt 0.6666667 0.7692308
vt 0.3333333 0.9230769
vt 0.5 1
vt 0.3333333 1
vt 0.1666667 0.9230769
vt 0.1666667 1
vt 0.5 0.7692308
vt 0.6666667 0.6153846
vt 0.8333333 0.6153846
vt 0.3333333 0.8461539
vt 0.1666667 0.8461539
vt 0.6666667 0.5384616
vt 0.8333333 0.5384616
vt 0.3333333 0.7692308
vt 0.1666667 0.7692308

# Normal
vn 0 0 -1

# Mesh description
g house_mesh_0007

# Faces
f 1/1/1 2/2/1 3/3/1 4/4/1
f 5/5/1 6/6/1 7/7/1 8/8/1
f 9/9/1 10/4/1 11/10/1 12/11/1
f 13/12/1 14/9/1 15/11/1 16/13/1
f 17/14/1 18/8/1 19/2/1 20/1/1
f 21/15/1 22/16/1 23/6/1 24/5/1
f 25/17/1 26/1/1 27/4/1 28/9/1
f 29/18/1 30/17/1 31/9/1 32/12/1
f 33/19/1 34/20/1 35/16/1 36/15/1
f 37/21/1 38/14/1 39/1/1 40/17/1
f 41/22/1 42/21/1 43/17/1 44/18/1

