# Tiled2Unity generated file. Do not modify by hand.
# Wavefront file for 'house_mesh_0001.obj'

# Vertices (Count = 40)
v 0 -32 0
v -32 -32 0
v -32 0 0
v 0 0 0
v -160 -32 0
v -192 -32 0
v -192 0 0
v -160 0 0
v -352 -32 0
v -384 -32 0
v -384 0 0
v -352 0 0
v 0 -256 0
v -32 -256 0
v -32 -224 0
v 0 -224 0
v -32 -256 0
v -64 -256 0
v -64 -224 0
v -32 -224 0
v -160 -256 0
v -192 -256 0
v -192 -224 0
v -160 -224 0
v -32 -352 0
v -64 -352 0
v -64 -320 0
v -32 -320 0
v -128 -352 0
v -160 -352 0
v -160 -320 0
v -128 -320 0
v -224 -352 0
v -256 -352 0
v -256 -320 0
v -224 -320 0
v -352 -352 0
v -384 -352 0
v -384 -320 0
v -352 -320 0

# Texture cooridinates (Count = 4)
vt 1 1
vt 0 1
vt 0 0
vt 1 0

# Normal
vn 0 0 -1

# Mesh description
g house_mesh_0001

# Faces
f 1/1/1 2/2/1 3/3/1 4/4/1
f 5/2/1 6/3/1 7/4/1 8/1/1
f 9/2/1 10/3/1 11/4/1 12/1/1
f 13/4/1 14/1/1 15/2/1 16/3/1
f 17/2/1 18/3/1 19/4/1 20/1/1
f 21/3/1 22/4/1 23/1/1 24/2/1
f 25/4/1 26/1/1 27/2/1 28/3/1
f 29/3/1 30/4/1 31/1/1 32/2/1
f 33/4/1 34/1/1 35/2/1 36/3/1
f 37/3/1 38/4/1 39/1/1 40/2/1

