# Tiled2Unity generated file. Do not modify by hand.
# Wavefront file for 'house_mesh_0002.obj'

# Vertices (Count = 16)
v -32 -32 0
v -64 -32 0
v -64 0 0
v -32 0 0
v -64 -32 0
v -96 -32 0
v -96 0 0
v -64 0 0
v -160 -128 0
v -192 -128 0
v -192 -96 0
v -160 -96 0
v -160 -160 0
v -192 -160 0
v -192 -128 0
v -160 -128 0

# Texture cooridinates (Count = 4)
vt 0 0
vt 1 0
vt 1 1
vt 0 1

# Normal
vn 0 0 -1

# Mesh description
g house_mesh_0002

# Faces
f 1/1/1 2/2/1 3/3/1 4/4/1
f 5/1/1 6/2/1 7/3/1 8/4/1
f 9/2/1 10/3/1 11/4/1 12/1/1
f 13/2/1 14/3/1 15/4/1 16/1/1

