# Tiled2Unity generated file. Do not modify by hand.
# Wavefront file for 'house_mesh_0010.obj'

# Vertices (Count = 24)
v -64 -96 0
v -96 -96 0
v -96 -64 0
v -64 -64 0
v -96 -96 0
v -128 -96 0
v -128 -64 0
v -96 -64 0
v -64 -128 0
v -96 -128 0
v -96 -96 0
v -64 -96 0
v -96 -128 0
v -128 -128 0
v -128 -96 0
v -96 -96 0
v -64 -160 0
v -96 -160 0
v -96 -128 0
v -64 -128 0
v -96 -160 0
v -128 -160 0
v -128 -128 0
v -96 -128 0

# Texture cooridinates (Count = 12)
vt 0.3636364 0.8
vt 0.4545455 0.8
vt 0.4545455 1
vt 0.3636364 1
vt 0.5454546 0.8
vt 0.5454546 1
vt 0.3636364 0.6
vt 0.4545455 0.6
vt 0.5454546 0.6
vt 0.3636364 0.4
vt 0.4545455 0.4
vt 0.5454546 0.4

# Normal
vn 0 0 -1

# Mesh description
g house_mesh_0010

# Faces
f 1/1/1 2/2/1 3/3/1 4/4/1
f 5/2/1 6/5/1 7/6/1 8/3/1
f 9/7/1 10/8/1 11/2/1 12/1/1
f 13/8/1 14/9/1 15/5/1 16/2/1
f 17/10/1 18/11/1 19/8/1 20/7/1
f 21/11/1 22/12/1 23/9/1 24/8/1

