# Tiled2Unity generated file. Do not modify by hand.
# Wavefront file for 'outsideHouse_mesh_0002.obj'

# Vertices (Count = 276)
v -128 -256 0
v -160 -256 0
v -160 -224 0
v -128 -224 0
v -128 -288 0
v -160 -288 0
v -160 -256 0
v -128 -256 0
v -96 -320 0
v -128 -320 0
v -128 -288 0
v -96 -288 0
v -128 -320 0
v -160 -320 0
v -160 -288 0
v -128 -288 0
v -160 -320 0
v -192 -320 0
v -192 -288 0
v -160 -288 0
v -96 -352 0
v -128 -352 0
v -128 -320 0
v -96 -320 0
v -128 -352 0
v -160 -352 0
v -160 -320 0
v -128 -320 0
v -160 -352 0
v -192 -352 0
v -192 -320 0
v -160 -320 0
v -192 -352 0
v -224 -352 0
v -224 -320 0
v -192 -320 0
v -96 -384 0
v -128 -384 0
v -128 -352 0
v -96 -352 0
v -128 -384 0
v -160 -384 0
v -160 -352 0
v -128 -352 0
v -160 -384 0
v -192 -384 0
v -192 -352 0
v -160 -352 0
v -192 -384 0
v -224 -384 0
v -224 -352 0
v -192 -352 0
v -224 -384 0
v -256 -384 0
v -256 -352 0
v -224 -352 0
v -320 -384 0
v -352 -384 0
v -352 -352 0
v -320 -352 0
v -352 -384 0
v -384 -384 0
v -384 -352 0
v -352 -352 0
v -384 -384 0
v -416 -384 0
v -416 -352 0
v -384 -352 0
v -416 -384 0
v -448 -384 0
v -448 -352 0
v -416 -352 0
v -448 -384 0
v -480 -384 0
v -480 -352 0
v -448 -352 0
v -480 -384 0
v -512 -384 0
v -512 -352 0
v -480 -352 0
v -512 -384 0
v -544 -384 0
v -544 -352 0
v -512 -352 0
v -544 -384 0
v -576 -384 0
v -576 -352 0
v -544 -352 0
v -576 -384 0
v -608 -384 0
v -608 -352 0
v -576 -352 0
v -608 -384 0
v -640 -384 0
v -640 -352 0
v -608 -352 0
v -96 -416 0
v -128 -416 0
v -128 -384 0
v -96 -384 0
v -128 -416 0
v -160 -416 0
v -160 -384 0
v -128 -384 0
v -160 -416 0
v -192 -416 0
v -192 -384 0
v -160 -384 0
v -192 -416 0
v -224 -416 0
v -224 -384 0
v -192 -384 0
v -224 -416 0
v -256 -416 0
v -256 -384 0
v -224 -384 0
v -256 -416 0
v -288 -416 0
v -288 -384 0
v -256 -384 0
v -288 -416 0
v -320 -416 0
v -320 -384 0
v -288 -384 0
v -320 -416 0
v -352 -416 0
v -352 -384 0
v -320 -384 0
v -352 -416 0
v -384 -416 0
v -384 -384 0
v -352 -384 0
v -384 -416 0
v -416 -416 0
v -416 -384 0
v -384 -384 0
v -416 -416 0
v -448 -416 0
v -448 -384 0
v -416 -384 0
v -448 -416 0
v -480 -416 0
v -480 -384 0
v -448 -384 0
v -480 -416 0
v -512 -416 0
v -512 -384 0
v -480 -384 0
v -512 -416 0
v -544 -416 0
v -544 -384 0
v -512 -384 0
v -544 -416 0
v -576 -416 0
v -576 -384 0
v -544 -384 0
v -576 -416 0
v -608 -416 0
v -608 -384 0
v -576 -384 0
v -608 -416 0
v -640 -416 0
v -640 -384 0
v -608 -384 0
v -128 -448 0
v -160 -448 0
v -160 -416 0
v -128 -416 0
v -160 -448 0
v -192 -448 0
v -192 -416 0
v -160 -416 0
v -192 -448 0
v -224 -448 0
v -224 -416 0
v -192 -416 0
v -224 -448 0
v -256 -448 0
v -256 -416 0
v -224 -416 0
v -256 -448 0
v -288 -448 0
v -288 -416 0
v -256 -416 0
v -288 -448 0
v -320 -448 0
v -320 -416 0
v -288 -416 0
v -320 -448 0
v -352 -448 0
v -352 -416 0
v -320 -416 0
v -352 -448 0
v -384 -448 0
v -384 -416 0
v -352 -416 0
v -384 -448 0
v -416 -448 0
v -416 -416 0
v -384 -416 0
v -416 -448 0
v -448 -448 0
v -448 -416 0
v -416 -416 0
v -448 -448 0
v -480 -448 0
v -480 -416 0
v -448 -416 0
v -480 -448 0
v -512 -448 0
v -512 -416 0
v -480 -416 0
v -512 -448 0
v -544 -448 0
v -544 -416 0
v -512 -416 0
v -544 -448 0
v -576 -448 0
v -576 -416 0
v -544 -416 0
v -576 -448 0
v -608 -448 0
v -608 -416 0
v -576 -416 0
v -608 -448 0
v -640 -448 0
v -640 -416 0
v -608 -416 0
v -160 -480 0
v -192 -480 0
v -192 -448 0
v -160 -448 0
v -192 -480 0
v -224 -480 0
v -224 -448 0
v -192 -448 0
v -224 -480 0
v -256 -480 0
v -256 -448 0
v -224 -448 0
v -256 -480 0
v -288 -480 0
v -288 -448 0
v -256 -448 0
v -288 -480 0
v -320 -480 0
v -320 -448 0
v -288 -448 0
v -320 -480 0
v -352 -480 0
v -352 -448 0
v -320 -448 0
v -352 -480 0
v -384 -480 0
v -384 -448 0
v -352 -448 0
v -384 -480 0
v -416 -480 0
v -416 -448 0
v -384 -448 0
v -224 -512 0
v -256 -512 0
v -256 -480 0
v -224 -480 0
v -256 -512 0
v -288 -512 0
v -288 -480 0
v -256 -480 0
v -288 -512 0
v -320 -512 0
v -320 -480 0
v -288 -480 0
v -320 -512 0
v -352 -512 0
v -352 -480 0
v -320 -480 0

# Texture cooridinates (Count = 22)
vt 0.3333333 0.3333333
vt 0.6666667 0.3333333
vt 0.6666667 0.5
vt 0.3333333 0.5
vt 0 0.5
vt 0.3333333 0.6666666
vt 0 0.6666666
vt 0.6666667 0.6666666
vt 1 0.5
vt 1 0.6666666
vt 0 0.3333333
vt 0.6666667 0.8333333
vt 0.3333333 0.8333333
vt 0 0.1666667
vt 0.3333333 0.1666667
vt 1 0.8333333
vt 1 1
vt 0.6666667 1
vt 0.3333333 1
vt 0.6666667 0.1666667
vt 1 0.1666667
vt 1 0.3333333

# Normal
vn 0 0 -1

# Mesh description
g outsideHouse_mesh_0002

# Faces
f 1/1/1 2/2/1 3/3/1 4/4/1
f 5/1/1 6/2/1 7/3/1 8/4/1
f 9/5/1 10/4/1 11/6/1 12/7/1
f 13/4/1 14/3/1 15/8/1 16/6/1
f 17/3/1 18/9/1 19/10/1 20/8/1
f 21/11/1 22/1/1 23/4/1 24/5/1
f 25/1/1 26/2/1 27/3/1 28/4/1
f 29/6/1 30/8/1 31/12/1 32/13/1
f 33/3/1 34/9/1 35/10/1 36/8/1
f 37/11/1 38/1/1 39/4/1 40/5/1
f 41/1/1 42/2/1 43/3/1 44/4/1
f 45/1/1 46/2/1 47/3/1 48/4/1
f 49/6/1 50/8/1 51/12/1 52/13/1
f 53/3/1 54/9/1 55/10/1 56/8/1
f 57/5/1 58/4/1 59/6/1 60/7/1
f 61/4/1 62/3/1 63/8/1 64/6/1
f 65/4/1 66/3/1 67/8/1 68/6/1
f 69/4/1 70/3/1 71/8/1 72/6/1
f 73/4/1 74/3/1 75/8/1 76/6/1
f 77/4/1 78/3/1 79/8/1 80/6/1
f 81/4/1 82/3/1 83/8/1 84/6/1
f 85/4/1 86/3/1 87/8/1 88/6/1
f 89/4/1 90/3/1 91/8/1 92/6/1
f 93/4/1 94/3/1 95/8/1 96/6/1
f 97/14/1 98/15/1 99/1/1 100/11/1
f 101/12/1 102/16/1 103/17/1 104/18/1
f 105/1/1 106/2/1 107/3/1 108/4/1
f 109/1/1 110/2/1 111/3/1 112/4/1
f 113/6/1 114/8/1 115/12/1 116/13/1
f 117/4/1 118/3/1 119/8/1 120/6/1
f 121/4/1 122/3/1 123/8/1 124/6/1
f 125/8/1 126/10/1 127/16/1 128/12/1
f 129/1/1 130/2/1 131/3/1 132/4/1
f 133/1/1 134/2/1 135/3/1 136/4/1
f 137/1/1 138/2/1 139/3/1 140/4/1
f 141/1/1 142/2/1 143/3/1 144/4/1
f 145/1/1 146/2/1 147/3/1 148/4/1
f 149/1/1 150/2/1 151/3/1 152/4/1
f 153/1/1 154/2/1 155/3/1 156/4/1
f 157/1/1 158/2/1 159/3/1 160/4/1
f 161/1/1 162/2/1 163/3/1 164/4/1
f 165/14/1 166/15/1 167/1/1 168/11/1
f 169/12/1 170/16/1 171/17/1 172/18/1
f 173/1/1 174/2/1 175/3/1 176/4/1
f 177/1/1 178/2/1 179/3/1 180/4/1
f 181/1/1 182/2/1 183/3/1 184/4/1
f 185/1/1 186/2/1 187/3/1 188/4/1
f 189/1/1 190/2/1 191/3/1 192/4/1
f 193/1/1 194/2/1 195/3/1 196/4/1
f 197/13/1 198/12/1 199/18/1 200/19/1
f 201/15/1 202/20/1 203/2/1 204/1/1
f 205/15/1 206/20/1 207/2/1 208/1/1
f 209/15/1 210/20/1 211/2/1 212/1/1
f 213/15/1 214/20/1 215/2/1 216/1/1
f 217/15/1 218/20/1 219/2/1 220/1/1
f 221/15/1 222/20/1 223/2/1 224/1/1
f 225/15/1 226/20/1 227/2/1 228/1/1
f 229/14/1 230/15/1 231/1/1 232/11/1
f 233/15/1 234/20/1 235/2/1 236/1/1
f 237/12/1 238/16/1 239/17/1 240/18/1
f 241/1/1 242/2/1 243/3/1 244/4/1
f 245/1/1 246/2/1 247/3/1 248/4/1
f 249/13/1 250/12/1 251/18/1 252/19/1
f 253/15/1 254/20/1 255/2/1 256/1/1
f 257/20/1 258/21/1 259/22/1 260/2/1
f 261/14/1 262/15/1 263/1/1 264/11/1
f 265/15/1 266/20/1 267/2/1 268/1/1
f 269/15/1 270/20/1 271/2/1 272/1/1
f 273/20/1 274/21/1 275/22/1 276/2/1

