# Tiled2Unity generated file. Do not modify by hand.
# Wavefront file for 'outsideHouse_mesh_0003.obj'

# Vertices (Count = 36)
v -96 -192 0
v -128 -192 0
v -128 -160 0
v -96 -160 0
v -128 -192 0
v -160 -192 0
v -160 -160 0
v -128 -160 0
v -160 -192 0
v -192 -192 0
v -192 -160 0
v -160 -160 0
v -96 -224 0
v -128 -224 0
v -128 -192 0
v -96 -192 0
v -128 -224 0
v -160 -224 0
v -160 -192 0
v -128 -192 0
v -160 -224 0
v -192 -224 0
v -192 -192 0
v -160 -192 0
v -96 -256 0
v -128 -256 0
v -128 -224 0
v -96 -224 0
v -128 -256 0
v -160 -256 0
v -160 -224 0
v -128 -224 0
v -160 -256 0
v -192 -256 0
v -192 -224 0
v -160 -224 0

# Texture cooridinates (Count = 19)
vt 0 0.8571429
vt 0.1111111 0.8571429
vt 0.1111111 1
vt 0 1
vt 0.2222222 0.8571429
vt 0.2222222 1
vt 0.3333333 0.8571429
vt 0.3333333 1
vt 0 0.7142857
vt 0.1111111 0.7142857
vt 0.4444444 0.8571429
vt 0.4444444 1
vt 0.2222222 0.7142857
vt 0.3333333 0.7142857
vt 0 0.5714285
vt 0.1111111 0.5714285
vt 0.4444444 0.7142857
vt 0.2222222 0.5714285
vt 0.3333333 0.5714285

# Normal
vn 0 0 -1

# Mesh description
g outsideHouse_mesh_0003

# Faces
f 1/1/1 2/2/1 3/3/1 4/4/1
f 5/2/1 6/5/1 7/6/1 8/3/1
f 9/5/1 10/7/1 11/8/1 12/6/1
f 13/9/1 14/10/1 15/2/1 16/1/1
f 17/7/1 18/11/1 19/12/1 20/8/1
f 21/13/1 22/14/1 23/7/1 24/5/1
f 25/15/1 26/16/1 27/10/1 28/9/1
f 29/14/1 30/17/1 31/11/1 32/7/1
f 33/18/1 34/19/1 35/14/1 36/13/1

