# Tiled2Unity generated file. Do not modify by hand.
# Wavefront file for 'map_mesh_0005.obj'

# Vertices (Count = 360)
v -576 -192 0
v -608 -192 0
v -608 -160 0
v -576 -160 0
v -608 -192 0
v -640 -192 0
v -640 -160 0
v -608 -160 0
v -640 -192 0
v -672 -192 0
v -672 -160 0
v -640 -160 0
v -576 -224 0
v -608 -224 0
v -608 -192 0
v -576 -192 0
v -608 -224 0
v -640 -224 0
v -640 -192 0
v -608 -192 0
v -640 -224 0
v -672 -224 0
v -672 -192 0
v -640 -192 0
v -448 -256 0
v -480 -256 0
v -480 -224 0
v -448 -224 0
v -480 -256 0
v -512 -256 0
v -512 -224 0
v -480 -224 0
v -512 -256 0
v -544 -256 0
v -544 -224 0
v -512 -224 0
v -576 -256 0
v -608 -256 0
v -608 -224 0
v -576 -224 0
v -608 -256 0
v -640 -256 0
v -640 -224 0
v -608 -224 0
v -640 -256 0
v -672 -256 0
v -672 -224 0
v -640 -224 0
v -448 -288 0
v -480 -288 0
v -480 -256 0
v -448 -256 0
v -480 -288 0
v -512 -288 0
v -512 -256 0
v -480 -256 0
v -512 -288 0
v -544 -288 0
v -544 -256 0
v -512 -256 0
v -128 -320 0
v -160 -320 0
v -160 -288 0
v -128 -288 0
v -160 -320 0
v -192 -320 0
v -192 -288 0
v -160 -288 0
v -192 -320 0
v -224 -320 0
v -224 -288 0
v -192 -288 0
v -288 -320 0
v -320 -320 0
v -320 -288 0
v -288 -288 0
v -320 -320 0
v -352 -320 0
v -352 -288 0
v -320 -288 0
v -352 -320 0
v -384 -320 0
v -384 -288 0
v -352 -288 0
v -448 -320 0
v -480 -320 0
v -480 -288 0
v -448 -288 0
v -480 -320 0
v -512 -320 0
v -512 -288 0
v -480 -288 0
v -512 -320 0
v -544 -320 0
v -544 -288 0
v -512 -288 0
v -128 -352 0
v -160 -352 0
v -160 -320 0
v -128 -320 0
v -160 -352 0
v -192 -352 0
v -192 -320 0
v -160 -320 0
v -192 -352 0
v -224 -352 0
v -224 -320 0
v -192 -320 0
v -288 -352 0
v -320 -352 0
v -320 -320 0
v -288 -320 0
v -320 -352 0
v -352 -352 0
v -352 -320 0
v -320 -320 0
v -352 -352 0
v -384 -352 0
v -384 -320 0
v -352 -320 0
v -128 -384 0
v -160 -384 0
v -160 -352 0
v -128 -352 0
v -160 -384 0
v -192 -384 0
v -192 -352 0
v -160 -352 0
v -192 -384 0
v -224 -384 0
v -224 -352 0
v -192 -352 0
v -288 -384 0
v -320 -384 0
v -320 -352 0
v -288 -352 0
v -320 -384 0
v -352 -384 0
v -352 -352 0
v -320 -352 0
v -352 -384 0
v -384 -384 0
v -384 -352 0
v -352 -352 0
v -96 -448 0
v -128 -448 0
v -128 -416 0
v -96 -416 0
v -128 -448 0
v -160 -448 0
v -160 -416 0
v -128 -416 0
v -160 -448 0
v -192 -448 0
v -192 -416 0
v -160 -416 0
v -96 -480 0
v -128 -480 0
v -128 -448 0
v -96 -448 0
v -128 -480 0
v -160 -480 0
v -160 -448 0
v -128 -448 0
v -160 -480 0
v -192 -480 0
v -192 -448 0
v -160 -448 0
v -640 -480 0
v -672 -480 0
v -672 -448 0
v -640 -448 0
v -672 -480 0
v -704 -480 0
v -704 -448 0
v -672 -448 0
v -704 -480 0
v -736 -480 0
v -736 -448 0
v -704 -448 0
v -96 -512 0
v -128 -512 0
v -128 -480 0
v -96 -480 0
v -128 -512 0
v -160 -512 0
v -160 -480 0
v -128 -480 0
v -160 -512 0
v -192 -512 0
v -192 -480 0
v -160 -480 0
v -320 -512 0
v -352 -512 0
v -352 -480 0
v -320 -480 0
v -352 -512 0
v -384 -512 0
v -384 -480 0
v -352 -480 0
v -384 -512 0
v -416 -512 0
v -416 -480 0
v -384 -480 0
v -640 -512 0
v -672 -512 0
v -672 -480 0
v -640 -480 0
v -672 -512 0
v -704 -512 0
v -704 -480 0
v -672 -480 0
v -704 -512 0
v -736 -512 0
v -736 -480 0
v -704 -480 0
v -320 -544 0
v -352 -544 0
v -352 -512 0
v -320 -512 0
v -352 -544 0
v -384 -544 0
v -384 -512 0
v -352 -512 0
v -384 -544 0
v -416 -544 0
v -416 -512 0
v -384 -512 0
v -512 -544 0
v -544 -544 0
v -544 -512 0
v -512 -512 0
v -544 -544 0
v -576 -544 0
v -576 -512 0
v -544 -512 0
v -576 -544 0
v -608 -544 0
v -608 -512 0
v -576 -512 0
v -640 -544 0
v -672 -544 0
v -672 -512 0
v -640 -512 0
v -672 -544 0
v -704 -544 0
v -704 -512 0
v -672 -512 0
v -704 -544 0
v -736 -544 0
v -736 -512 0
v -704 -512 0
v -320 -576 0
v -352 -576 0
v -352 -544 0
v -320 -544 0
v -352 -576 0
v -384 -576 0
v -384 -544 0
v -352 -544 0
v -384 -576 0
v -416 -576 0
v -416 -544 0
v -384 -544 0
v -416 -576 0
v -448 -576 0
v -448 -544 0
v -416 -544 0
v -448 -576 0
v -480 -576 0
v -480 -544 0
v -448 -544 0
v -480 -576 0
v -512 -576 0
v -512 -544 0
v -480 -544 0
v -512 -576 0
v -544 -576 0
v -544 -544 0
v -512 -544 0
v -544 -576 0
v -576 -576 0
v -576 -544 0
v -544 -544 0
v -576 -576 0
v -608 -576 0
v -608 -544 0
v -576 -544 0
v -192 -608 0
v -224 -608 0
v -224 -576 0
v -192 -576 0
v -224 -608 0
v -256 -608 0
v -256 -576 0
v -224 -576 0
v -256 -608 0
v -288 -608 0
v -288 -576 0
v -256 -576 0
v -416 -608 0
v -448 -608 0
v -448 -576 0
v -416 -576 0
v -448 -608 0
v -480 -608 0
v -480 -576 0
v -448 -576 0
v -480 -608 0
v -512 -608 0
v -512 -576 0
v -480 -576 0
v -512 -608 0
v -544 -608 0
v -544 -576 0
v -512 -576 0
v -544 -608 0
v -576 -608 0
v -576 -576 0
v -544 -576 0
v -576 -608 0
v -608 -608 0
v -608 -576 0
v -576 -576 0
v -192 -640 0
v -224 -640 0
v -224 -608 0
v -192 -608 0
v -224 -640 0
v -256 -640 0
v -256 -608 0
v -224 -608 0
v -256 -640 0
v -288 -640 0
v -288 -608 0
v -256 -608 0
v -416 -640 0
v -448 -640 0
v -448 -608 0
v -416 -608 0
v -448 -640 0
v -480 -640 0
v -480 -608 0
v -448 -608 0
v -480 -640 0
v -512 -640 0
v -512 -608 0
v -480 -608 0
v -192 -672 0
v -224 -672 0
v -224 -640 0
v -192 -640 0
v -224 -672 0
v -256 -672 0
v -256 -640 0
v -224 -640 0
v -256 -672 0
v -288 -672 0
v -288 -640 0
v -256 -640 0

# Texture cooridinates (Count = 28)
vt 0.5 0.6666666
vt 0.6666667 0.6666666
vt 0.6666667 1
vt 0.5 1
vt 0.8333333 0.6666666
vt 0.8333333 1
vt 1 0.6666666
vt 1 1
vt 0.5 0.3333333
vt 0.6666667 0.3333333
vt 0.8333333 0.3333333
vt 1 0.3333333
vt 0 0.6666666
vt 0.1666667 0.6666666
vt 0.1666667 1
vt 0 1
vt 0.3333333 0.6666666
vt 0.3333333 1
vt 0.5 0
vt 0.6666667 0
vt 0.8333333 0
vt 1 0
vt 0 0.3333333
vt 0.1666667 0.3333333
vt 0.3333333 0.3333333
vt 0 0
vt 0.1666667 0
vt 0.3333333 0

# Normal
vn 0 0 -1

# Mesh description
g map_mesh_0005

# Faces
f 1/1/1 2/2/1 3/3/1 4/4/1
f 5/2/1 6/5/1 7/6/1 8/3/1
f 9/5/1 10/7/1 11/8/1 12/6/1
f 13/9/1 14/10/1 15/2/1 16/1/1
f 17/10/1 18/11/1 19/5/1 20/2/1
f 21/11/1 22/12/1 23/7/1 24/5/1
f 25/13/1 26/14/1 27/15/1 28/16/1
f 29/14/1 30/17/1 31/18/1 32/15/1
f 33/17/1 34/1/1 35/4/1 36/18/1
f 37/19/1 38/20/1 39/10/1 40/9/1
f 41/20/1 42/21/1 43/11/1 44/10/1
f 45/21/1 46/22/1 47/12/1 48/11/1
f 49/23/1 50/24/1 51/14/1 52/13/1
f 53/24/1 54/25/1 55/17/1 56/14/1
f 57/25/1 58/9/1 59/1/1 60/17/1
f 61/1/1 62/2/1 63/3/1 64/4/1
f 65/2/1 66/5/1 67/6/1 68/3/1
f 69/5/1 70/7/1 71/8/1 72/6/1
f 73/13/1 74/14/1 75/15/1 76/16/1
f 77/14/1 78/17/1 79/18/1 80/15/1
f 81/17/1 82/1/1 83/4/1 84/18/1
f 85/26/1 86/27/1 87/24/1 88/23/1
f 89/27/1 90/28/1 91/25/1 92/24/1
f 93/28/1 94/19/1 95/9/1 96/25/1
f 97/9/1 98/10/1 99/2/1 100/1/1
f 101/10/1 102/11/1 103/5/1 104/2/1
f 105/11/1 106/12/1 107/7/1 108/5/1
f 109/23/1 110/24/1 111/14/1 112/13/1
f 113/24/1 114/25/1 115/17/1 116/14/1
f 117/25/1 118/9/1 119/1/1 120/17/1
f 121/19/1 122/20/1 123/10/1 124/9/1
f 125/20/1 126/21/1 127/11/1 128/10/1
f 129/21/1 130/22/1 131/12/1 132/11/1
f 133/26/1 134/27/1 135/24/1 136/23/1
f 137/27/1 138/28/1 139/25/1 140/24/1
f 141/28/1 142/19/1 143/9/1 144/25/1
f 145/13/1 146/14/1 147/15/1 148/16/1
f 149/14/1 150/17/1 151/18/1 152/15/1
f 153/17/1 154/1/1 155/4/1 156/18/1
f 157/23/1 158/24/1 159/14/1 160/13/1
f 161/24/1 162/25/1 163/17/1 164/14/1
f 165/25/1 166/9/1 167/1/1 168/17/1
f 169/13/1 170/14/1 171/15/1 172/16/1
f 173/14/1 174/17/1 175/18/1 176/15/1
f 177/17/1 178/1/1 179/4/1 180/18/1
f 181/26/1 182/27/1 183/24/1 184/23/1
f 185/27/1 186/28/1 187/25/1 188/24/1
f 189/28/1 190/19/1 191/9/1 192/25/1
f 193/1/1 194/2/1 195/3/1 196/4/1
f 197/2/1 198/5/1 199/6/1 200/3/1
f 201/5/1 202/7/1 203/8/1 204/6/1
f 205/23/1 206/24/1 207/14/1 208/13/1
f 209/24/1 210/25/1 211/17/1 212/14/1
f 213/25/1 214/9/1 215/1/1 216/17/1
f 217/9/1 218/10/1 219/2/1 220/1/1
f 221/10/1 222/11/1 223/5/1 224/2/1
f 225/11/1 226/12/1 227/7/1 228/5/1
f 229/1/1 230/2/1 231/3/1 232/4/1
f 233/2/1 234/5/1 235/6/1 236/3/1
f 237/5/1 238/7/1 239/8/1 240/6/1
f 241/26/1 242/27/1 243/24/1 244/23/1
f 245/27/1 246/28/1 247/25/1 248/24/1
f 249/28/1 250/19/1 251/9/1 252/25/1
f 253/19/1 254/20/1 255/10/1 256/9/1
f 257/20/1 258/21/1 259/11/1 260/10/1
f 261/21/1 262/22/1 263/12/1 264/11/1
f 265/13/1 266/14/1 267/15/1 268/16/1
f 269/14/1 270/17/1 271/18/1 272/15/1
f 273/17/1 274/1/1 275/4/1 276/18/1
f 277/9/1 278/10/1 279/2/1 280/1/1
f 281/10/1 282/11/1 283/5/1 284/2/1
f 285/11/1 286/12/1 287/7/1 288/5/1
f 289/1/1 290/2/1 291/3/1 292/4/1
f 293/2/1 294/5/1 295/6/1 296/3/1
f 297/5/1 298/7/1 299/8/1 300/6/1
f 301/23/1 302/24/1 303/14/1 304/13/1
f 305/24/1 306/25/1 307/17/1 308/14/1
f 309/25/1 310/9/1 311/1/1 312/17/1
f 313/19/1 314/20/1 315/10/1 316/9/1
f 317/20/1 318/21/1 319/11/1 320/10/1
f 321/21/1 322/22/1 323/12/1 324/11/1
f 325/9/1 326/10/1 327/2/1 328/1/1
f 329/10/1 330/11/1 331/5/1 332/2/1
f 333/11/1 334/12/1 335/7/1 336/5/1
f 337/26/1 338/27/1 339/24/1 340/23/1
f 341/27/1 342/28/1 343/25/1 344/24/1
f 345/28/1 346/19/1 347/9/1 348/25/1
f 349/19/1 350/20/1 351/10/1 352/9/1
f 353/20/1 354/21/1 355/11/1 356/10/1
f 357/21/1 358/22/1 359/12/1 360/11/1

