# Tiled2Unity generated file. Do not modify by hand.
# Wavefront file for 'map_mesh_0004.obj'

# Vertices (Count = 44)
v -736 -160 0
v -768 -160 0
v -768 -128 0
v -736 -128 0
v -384 -256 0
v -416 -256 0
v -416 -224 0
v -384 -224 0
v -736 -320 0
v -768 -320 0
v -768 -288 0
v -736 -288 0
v -416 -352 0
v -448 -352 0
v -448 -320 0
v -416 -320 0
v -224 -384 0
v -256 -384 0
v -256 -352 0
v -224 -352 0
v -608 -416 0
v -640 -416 0
v -640 -384 0
v -608 -384 0
v -704 -416 0
v -736 -416 0
v -736 -384 0
v -704 -384 0
v -576 -480 0
v -608 -480 0
v -608 -448 0
v -576 -448 0
v -32 -512 0
v -64 -512 0
v -64 -480 0
v -32 -480 0
v -320 -544 0
v -352 -544 0
v -352 -512 0
v -320 -512 0
v -128 -704 0
v -160 -704 0
v -160 -672 0
v -128 -672 0

# Texture cooridinates (Count = 6)
vt 0.5 0
vt 1 0
vt 1 1
vt 0.5 1
vt 0 0
vt 0 1

# Normal
vn 0 0 -1

# Mesh description
g map_mesh_0004

# Faces
f 1/1/1 2/2/1 3/3/1 4/4/1
f 5/5/1 6/1/1 7/4/1 8/6/1
f 9/5/1 10/1/1 11/4/1 12/6/1
f 13/1/1 14/2/1 15/3/1 16/4/1
f 17/5/1 18/1/1 19/4/1 20/6/1
f 21/5/1 22/1/1 23/4/1 24/6/1
f 25/1/1 26/2/1 27/3/1 28/4/1
f 29/1/1 30/2/1 31/3/1 32/4/1
f 33/1/1 34/2/1 35/3/1 36/4/1
f 37/1/1 38/2/1 39/3/1 40/4/1
f 41/5/1 42/1/1 43/4/1 44/6/1

